# xmcd
#
# Track frame offsets:
#	150
#	18165
#	42267
#
# Disc length: 862 seconds
#
# Revision: 0
# Processed by: cddbd v1.5.1PL0 Copyright (c) Steve Scherf et al.
# Submitted via: audiograbber 1.83.01
#
DISCID=18035c03
DTITLE=Hinda Hicks - If you want me [CD Single)
DYEAR=1998
DGENRE=Pop
TTITLE0=If you want me (Album version)
TTITLE1=All my love
TTITLE2=Stay
EXTD=
EXTT0=
EXTT1=
EXTT2=
PLAYORDER=
